<svg xmlns="http://www.w3.org/2000/svg" width="10.002" height="10" viewBox="0 0 10.002 10">
  <path id="Icon_awesome-instagram" data-name="Icon awesome-instagram" d="M5,4.674A2.564,2.564,0,1,0,7.561,7.238,2.56,2.56,0,0,0,5,4.674ZM5,8.9A1.667,1.667,0,1,1,6.664,7.238,1.67,1.67,0,0,1,5,8.9ZM8.264,4.569a.6.6,0,1,1-.6-.6A.6.6,0,0,1,8.264,4.569Zm1.7.607a2.959,2.959,0,0,0-.808-2.1,2.979,2.979,0,0,0-2.1-.808c-.826-.047-3.3-.047-4.126,0a2.975,2.975,0,0,0-2.1.806,2.969,2.969,0,0,0-.808,2.1C-.017,6-.017,8.474.03,9.3a2.959,2.959,0,0,0,.808,2.1,2.983,2.983,0,0,0,2.1.808c.826.047,3.3.047,4.126,0a2.959,2.959,0,0,0,2.1-.808,2.979,2.979,0,0,0,.808-2.1c.047-.826.047-3.3,0-4.124ZM8.9,10.185a1.688,1.688,0,0,1-.951.951,11.021,11.021,0,0,1-2.948.2,11.107,11.107,0,0,1-2.948-.2,1.688,1.688,0,0,1-.951-.951A11.021,11.021,0,0,1,.9,7.238,11.107,11.107,0,0,1,1.1,4.29a1.688,1.688,0,0,1,.951-.951A11.021,11.021,0,0,1,5,3.139a11.107,11.107,0,0,1,2.948.2A1.688,1.688,0,0,1,8.9,4.29a11.021,11.021,0,0,1,.2,2.948A11.014,11.014,0,0,1,8.9,10.185Z" transform="translate(0.005 -2.238)" fill="#fff"/>
</svg>
