<svg id="Carlsens_Kvarter_logo" data-name="Carlsens Kvarter logo" xmlns="http://www.w3.org/2000/svg" width="226.573" height="31.101" viewBox="0 0 226.573 31.101">
  <g id="Layer_1" transform="translate(52.117 1.784)">
    <rect id="Rectangle_690" data-name="Rectangle 690" width="4.897" height="27.518" transform="translate(0 0.151)" fill="#f7f2ed"/>
    <path id="Path_289" data-name="Path 289" d="M130.44,28.28c-2.576-1.149-2.764-2.571-1.012-3.508a3.074,3.074,0,0,1,2.42.061s.895.344.975.344h0a.75.75,0,0,0,.829-.829V22.224c0-.607.085-1.3-.49-1.347-4.949-.386-5.716-.16-6.282-.042a5.246,5.246,0,0,0-3.64,4.93c0,1.069.155,2.693.716,3.32,1.639,2.764,7.619,3.725,7.035,6.07-.518,2.072-2.675,2.015-3.2,1.964a.745.745,0,0,1-.2-.047l-2.919-1.1c-1.521-.683-1.333.118-1.333.7v2.75a.818.818,0,0,0,.556.782c9.9,3.324,11.626-4.12,11.626-5.349a5.332,5.332,0,0,0-1.38-3.875c-.137-.151-.494-.485-.852-.805a9.357,9.357,0,0,0-1.464-1.074l-1.384-.819Z" transform="translate(-117.326 -12.717)" fill="#f7f2ed"/>
    <path id="Path_290" data-name="Path 290" d="M239.2,28.28c-2.576-1.149-2.764-2.571-1.012-3.508a3.074,3.074,0,0,1,2.42.061s.895.344.975.344h0a.75.75,0,0,0,.829-.829V22.224c0-.607.085-1.3-.49-1.347-4.949-.386-5.716-.16-6.282-.042a5.246,5.246,0,0,0-3.64,4.93c0,1.069.155,2.693.716,3.32,1.639,2.764,7.619,3.725,7.035,6.07-.518,2.072-2.675,2.015-3.2,1.964a.745.745,0,0,1-.2-.047l-2.919-1.1c-1.521-.683-1.333.118-1.333.7v2.75a.818.818,0,0,0,.556.782c9.9,3.324,11.626-4.12,11.626-5.349a5.332,5.332,0,0,0-1.38-3.875c-.137-.151-.494-.485-.852-.805a9.358,9.358,0,0,0-1.464-1.074l-1.384-.819Z" transform="translate(-174.873 -12.717)" fill="#f7f2ed"/>
    <path id="Path_291" data-name="Path 291" d="M165.4,34.1c-1.6,1.4-3.748,3.122-6.578,3.1a3.231,3.231,0,0,1-2.613-1.22l7.633-6.051,4.751-3.786s-3.861-5.928-9.333-5.58c-12.94.819-10.567,13.674-9.432,15.167.447.735,3.235,5.74,8.989,5.74,4.591,0,6.465-1.681,7.035-2.359a.874.874,0,0,0,.2-.574l.014-4.144a.4.4,0,0,0-.664-.306Zm-5.618-9.159a2.741,2.741,0,0,1,1.766.772l-8.462,6.517c-.184-6.418,4.356-7.548,6.7-7.289Z" transform="translate(-130.898 -12.657)" fill="#f7f2ed"/>
    <path id="Path_292" data-name="Path 292" d="M436.379,34.1c-1.6,1.4-3.748,3.122-6.578,3.1a3.231,3.231,0,0,1-2.613-1.22l7.633-6.051,4.751-3.786s-3.861-5.928-9.333-5.58c-12.94.819-10.567,13.674-9.432,15.167.447.735,3.235,5.74,8.989,5.74,4.591,0,6.465-1.681,7.035-2.359a.874.874,0,0,0,.2-.574l.014-4.144a.4.4,0,0,0-.664-.306Zm-5.618-9.159a2.741,2.741,0,0,1,1.766.772l-8.462,6.517c-.184-6.418,4.356-7.548,6.7-7.289Z" transform="translate(-274.279 -12.657)" fill="#f7f2ed"/>
    <path id="Path_293" data-name="Path 293" d="M202.161,25.056a2.446,2.446,0,0,1,1.865,2.642V40.242h4.991V25.423c-1.14-2.788-4.134-4.115-5.7-4.624a5.2,5.2,0,0,0-1.634-.259h-2.623a7.763,7.763,0,0,0-3.014.574c-2.015.852-4.779,2.8-4.779,4.035V40.237h5.005V26.709a2.5,2.5,0,0,1,2.265-1.667" transform="translate(-153.322 -12.653)" fill="#f7f2ed"/>
    <path id="Path_294" data-name="Path 294" d="M271.225,31.384V3.79h4.69V13.848a.279.279,0,0,0,.5.17L284.32,3.79h6.4l-8.947,12.017a.346.346,0,0,0,.08.494,20.42,20.42,0,0,1,10.388,15.082h-5.632s-2.048-10.628-10.5-11.188a.194.194,0,0,0-.207.193v11h-4.69Z" transform="translate(-195.625 -3.79)" fill="#f7f2ed"/>
    <path id="Path_295" data-name="Path 295" d="M302.335,22.98h5.509l4.69,9.7,3.988-7.944c.287-.57.706-1.662,1.337-1.752h4.968L312.708,43.261,302.33,22.985Z" transform="translate(-212.086 -13.944)" fill="#f7f2ed"/>
  </g>
  <g id="Layer_2" transform="translate(0 0)">
    <path id="Path_296" data-name="Path 296" d="M61.334,21.613a10.66,10.66,0,0,0-13.1,0c-6.032,5.18-3.72,13.048-.73,15.614a9.986,9.986,0,0,0,3.626,2.251,11.332,11.332,0,0,0,4.921.6c1.408-.127,3.268-.4,3.772-.937a2.63,2.63,0,0,0,.876.565h3.588V23.779l-2.948-2.161ZM59.62,33.483S57.666,36.1,54.93,36.1A6.009,6.009,0,0,1,49.7,33.06s-3.668-8.325,4.958-9.286c4.389-.061,4.958,2.246,4.958,2.246v7.463Z" transform="translate(-23.523 -10.241)" fill="#f7f2ed"/>
    <path id="Path_297" data-name="Path 297" d="M358,21.393a10.66,10.66,0,0,0-13.1,0c-6.032,5.18-3.72,13.048-.73,15.614a9.987,9.987,0,0,0,3.626,2.251,11.332,11.332,0,0,0,4.921.6c1.408-.127,3.268-.4,3.772-.937a2.63,2.63,0,0,0,.876.565h3.588V23.559L358,21.4ZM356.29,33.263s-1.954,2.613-4.69,2.613a6.009,6.009,0,0,1-5.231-3.037s-3.668-8.325,4.958-9.286c4.389-.061,4.958,2.246,4.958,2.246v7.463Z" transform="translate(-180.497 -10.125)" fill="#f7f2ed"/>
    <path id="Path_298" data-name="Path 298" d="M90.83,40.4V24.48a11.155,11.155,0,0,1,8.805-3.8v4.271l-2.091.221a1.758,1.758,0,0,0-.961.4,2.4,2.4,0,0,0-.871,1.879V40.4H90.83Z" transform="translate(-48.06 -10.942)" fill="#f7f2ed"/>
    <path id="Path_299" data-name="Path 299" d="M387.43,40.466V24.55a11.155,11.155,0,0,1,8.805-3.8v4.271l-2.091.221a1.758,1.758,0,0,0-.961.4,2.4,2.4,0,0,0-.871,1.879v12.94Z" transform="translate(-204.997 -10.979)" fill="#f7f2ed"/>
    <path id="Path_300" data-name="Path 300" d="M462.47,40.466V24.55a11.155,11.155,0,0,1,8.805-3.8v4.271l-2.091.221a1.758,1.758,0,0,0-.961.4,2.4,2.4,0,0,0-.871,1.879v12.94Z" transform="translate(-244.702 -10.979)" fill="#f7f2ed"/>
    <path id="Path_301" data-name="Path 301" d="M410.8,10.24v5.98h3.188v3.428H410.8V34.9H406.13V15.189" transform="translate(-214.892 -5.418)" fill="#f7f2ed"/>
    <path id="Path_302" data-name="Path 302" d="M0,15.563c0,.146,0,.292.019.438a18.154,18.154,0,0,0,.49,2.9,14.938,14.938,0,0,0,20.14,9.87v-5.1S12.535,28.724,6.71,20.8a10.626,10.626,0,0,1-1.949-4.69c-.024-.155-.042-.315-.061-.48a6.663,6.663,0,0,1,0-1.37c.019-.165.038-.325.061-.48A10.594,10.594,0,0,1,6.71,9.088c5.825-7.925,13.938-2.863,13.938-2.863v-5.1A14.935,14.935,0,0,0,.513,11a18.063,18.063,0,0,0-.49,2.9c-.014.146-.019.292-.019.438v1.234Z" transform="translate(0 0)" fill="#f7f2ed"/>
  </g>
</svg>
